Coordinates
version=1
nRows=12
nColumns=38
inDegrees=yes

Units are S.I. units (second, meters, Newtons, ...)
Angles are in degrees.

endheader
time	pelvis_tilt	pelvis_list	pelvis_rotation	pelvis_tx	pelvis_ty	pelvis_tz	hip_flexion_r	hip_adduction_r	hip_rotation_r	knee_angle_r	ankle_angle_r	subtalar_angle_r	mtp_angle_r	hip_flexion_l	hip_adduction_l	hip_rotation_l	knee_angle_l	ankle_angle_l	subtalar_angle_l	mtp_angle_l	lumbar_extension	lumbar_bending	lumbar_rotation	arm_flex_r	arm_add_r	arm_rot_r	elbow_flex_r	pro_sup_r	wrist_flex_r	wrist_dev_r	arm_flex_l	arm_add_l	arm_rot_l	elbow_flex_l	pro_sup_l	wrist_flex_l	wrist_dev_l
      3.41000000	     -2.15892963	      5.31839356	      5.20060024	     -0.53597661	      0.91268150	     -0.23223387	      6.24540610	     -3.39422320	     -2.75462064	    -60.20488930	    -17.21567753	    -14.74231395	     22.93685121	     20.01011588	     10.31306182	      3.61944525	    -25.61067400	      3.11325141	      2.61569054	      2.43286124	     -4.33074958	     -5.07866788	     -2.46609652	     -4.90606481	    -17.22338322	     10.12051490	     26.23405004	     86.51662706	      0.00000000	      0.00000000	     -2.29523953	    -15.17842215	     19.78885364	     18.05560233	     85.94366927	      0.00000000	      0.00000000
      3.42000000	     -2.19395656	      5.27374261	      4.95976199	     -0.52491976	      0.91407360	     -0.23210810	      8.27096435	     -3.28666345	     -2.35387502	    -62.11666227	    -16.30233587	    -15.49866367	     21.94315962	     19.09372670	     10.02698546	      3.00310654	    -25.27749485	      3.89601696	      3.55346461	      2.16306641	     -4.41894360	     -5.08927122	     -2.62043274	     -4.72359313	    -17.10548247	     10.86879413	     25.37518569	     86.51662706	      0.00000000	      0.00000000	     -2.19372333	    -15.33941013	     19.21806618	     18.87647279	     85.94366927	      0.00000000	      0.00000000
      3.43000000	     -2.22039553	      5.18418016	      4.76001538	     -0.51386310	      0.91549334	     -0.23204849	     10.25117266	     -3.14060585	     -2.05901096	    -63.69098646	    -15.27447680	    -15.82645631	     21.05255901	     18.12834516	      9.75741846	      2.64088607	    -24.88315384	      4.60113746	      4.26967027	      1.93025643	     -4.51214786	     -5.03188578	     -2.82081497	     -4.59642704	    -17.00465867	     11.52953481	     24.62640258	     86.51662706	      0.00000000	      0.00000000	     -2.08854371	    -15.49036037	     18.69616629	     19.68739888	     85.94366927	      0.00000000	      0.00000000
      3.44000000	     -2.23827164	      5.05523591	      4.61054870	     -0.50278530	      0.91691623	     -0.23209514	     12.16738409	     -2.96764086	     -1.85512008	    -64.92224573	    -14.19069561	    -15.73555873	     20.28760467	     17.11927137	      9.51066463	      2.54090051	    -24.44223148	      5.24224274	      4.74544458	      1.73818792	     -4.60561673	     -4.91092175	     -3.05965559	     -4.54388310	    -16.92165587	     12.07008203	     23.99791134	     86.51662706	      0.00000000	      0.00000000	     -1.97830921	    -15.62823030	     18.22550921	     20.48971912	     85.94366927	      0.00000000	      0.00000000
      3.45000000	     -2.24688194	      4.89141745	      4.51448973	     -0.49169079	      0.91831474	     -0.23226769	     14.00475676	     -2.78007543	     -1.72933337	    -65.81208112	    -13.08180301	    -15.27915521	     19.65333372	     16.07501217	      9.28414053	      2.67973535	    -23.96911229	      5.83112904	      4.98839577	      1.58749281	     -4.69655451	     -4.73219606	     -3.32908941	     -4.57401512	    -16.85701736	     12.46789311	     23.49176237	     86.51662706	      0.00000000	      0.00000000	     -1.86148693	    -15.75120931	     17.80560219	     21.28546876	     85.94366927	      0.00000000	      0.00000000
      3.46000000	     -2.24518425	      4.69662010	      4.46872410	     -0.48058018	      0.91965884	     -0.23254891	     15.75253587	     -2.58934930	     -1.67310888	    -66.36654045	    -11.96228922	    -14.54432022	     19.13956134	     15.00534497	      9.06923047	      3.00922846	    -23.47624671	      6.37693720	      5.02983722	      1.47558012	     -4.78391147	     -4.50253040	     -3.62141727	     -4.68432852	    -16.81054411	     12.71157531	     23.10182478	     86.51662706	      0.00000000	      0.00000000	     -1.73695014	    -15.85944590	     17.43402411	     22.07639375	     85.94366927	      0.00000000	      0.00000000
      3.47000000	     -2.23235798	      4.47505050	      4.46488680	     -0.46944187	      0.92092757	     -0.23290154	     17.40386198	     -2.40394416	     -1.68167882	    -66.59400783	    -10.84201247	    -13.63865145	     18.72458628	     13.91918176	      8.85477348	      3.46601004	    -22.97277236	      6.88680409	      4.91907104	      1.39706856	     -4.86785344	     -4.22954541	     -3.92946070	     -4.86420655	    -16.78091748	     12.80073625	     22.81474715	     86.51662706	      0.00000000	      0.00000000	     -1.60445962	    -15.95533142	     17.10735078	     22.86338952	     85.94366927	      0.00000000	      0.00000000
      3.48000000	     -2.20828072	      4.23156552	      4.49143485	     -0.45826696	      0.92211217	     -0.23329322	     18.95499443	     -2.22852644	     -1.75157018	    -66.50378681	     -9.73427808	    -12.67591634	     18.37979152	     12.82304888	      8.63009512	      3.98209071	    -22.46363941	      7.36724568	      4.71571564	      1.34466915	     -4.94915963	     -3.92164141	     -4.24684256	     -5.09826006	    -16.76549908	     12.74479349	     22.61171011	     86.51662706	      0.00000000	      0.00000000	     -1.46494566	    -16.04317828	     16.82191078	     23.64635211	     85.94366927	      0.00000000	      0.00000000
      3.49000000	     -2.17375374	      3.97139765	      4.53638783	     -0.44706230	      0.92319938	     -0.23369927	     20.40418053	     -2.06462814	     -1.87783014	    -66.10524754	     -8.65892339	    -11.76291785	     18.07443573	     11.72039722	      8.38694250	      4.49484189	    -21.94956859	      7.82543376	      4.48128264	      1.31036089	     -5.02875360	     -3.58802232	     -4.56815879	     -5.36966475	    -16.76036969	     12.56098443	     22.47067670	     86.51662706	      0.00000000	      0.00000000	     -1.32046828	    -16.12841801	     16.57423186	     24.42431365	     85.94366927	      0.00000000	      0.00000000
      3.50000000	     -2.13047436	      3.70022378	      4.58995793	     -0.43584378	      0.92416018	     -0.23409614	     21.75059197	     -1.91188954	     -2.05243121	    -65.40742521	     -7.64104201	    -10.98889745	     17.77992381	     10.61160581	      8.12030913	      4.95497563	    -21.42811760	      8.26971469	      4.27121986	      1.28666259	     -5.10746175	     -3.23863174	     -4.88905774	     -5.66276352	    -16.76066061	     12.27189293	     22.36879525	     86.51662706	      0.00000000	      0.00000000	     -1.17380418	    -16.21666968	     16.36114111	     25.19569747	     85.94366927	      0.00000000	      0.00000000
      3.51000000	     -2.08056433	      3.42465925	      4.64621508	     -0.42461644	      0.92495428	     -0.23446360	     22.99368879	     -1.76939345	     -2.26440044	    -64.41889887	     -6.70690591	    -10.41819674	     17.47302364	      9.49460463	      7.82874396	      5.33148451	    -20.89565622	      8.70912473	      4.12846725	      1.26780280	     -5.18604061	     -2.88393763	     -5.20629766	     -5.96460907	    -16.76111298	     11.90284596	     22.28460854	     86.51662706	      0.00000000	      0.00000000	     -1.02776044	    -16.31290313	     16.17959620	     25.95854366	     85.94366927	      0.00000000	      0.00000000
      3.52000000	     -2.02579275	      3.15239273	      4.70322633	     -0.41336567	      0.92554383	     -0.23478704	     24.13271603	     -1.63727235	     -2.50133552	    -63.14802444	     -5.87887086	    -10.08636605	     17.13777477	      8.36626697	      7.51473470	      5.61303865	    -20.34954814	      9.15212181	      4.07927392	      1.25062018	     -5.26547121	     -2.53457711	     -5.51783149	     -6.26546859	    -16.75668470	     11.47950672	     22.19978820	     86.51662706	      0.00000000	      0.00000000	     -0.88446854	    -16.42071367	     16.02640893	     26.71059099	     85.94366927	      0.00000000	      0.00000000
